<?xml version="1.0" encoding="UTF-8" standalone="no"?>
<svg width="400px" height="400px" viewBox="0 0 400 400" version="1.1" xmlns="http://www.w3.org/2000/svg" xmlns:xlink="http://www.w3.org/1999/xlink">
    <!-- Generator: Sketch 41.2 (35397) - http://www.bohemiancoding.com/sketch -->
    <title>cb</title>
    <desc>Created with Sketch.</desc>
    <defs>
        <path d="M238.174258,199.10154 C279.811979,213.145032 326.869995,205.507344 326.869995,177.913114 C326.869995,150.318885 283.261258,99 283.261258,99 C283.261258,99 197.768422,109.420295 187.666963,139.724672 C177.565504,170.029049 196.536537,185.058049 238.174258,199.10154 Z" id="path-1"></path>
        <mask id="mask-2" maskContentUnits="userSpaceOnUse" maskUnits="objectBoundingBox" x="0" y="0" width="141.869995" height="106.983552" fill="white">
            <use xlink:href="#path-1"></use>
        </mask>
        <path d="M101.174258,273.10154 C142.811979,287.145032 189.869995,279.507344 189.869995,251.913114 C189.869995,224.318885 146.261258,173 146.261258,173 C146.261258,173 60.768422,183.420295 50.6669631,213.724672 C40.5655041,244.029049 59.5365368,259.058049 101.174258,273.10154 Z" id="path-3"></path>
        <mask id="mask-4" maskContentUnits="userSpaceOnUse" maskUnits="objectBoundingBox" x="0" y="0" width="141.869995" height="106.983552" fill="white">
            <use xlink:href="#path-3"></use>
        </mask>
        <path d="M266.174258,331.10154 C307.811979,345.145032 354.869995,337.507344 354.869995,309.913114 C354.869995,282.318885 311.261258,231 311.261258,231 C311.261258,231 225.768422,241.420295 215.666963,271.724672 C205.565504,302.029049 224.536537,317.058049 266.174258,331.10154 Z" id="path-5"></path>
        <mask id="mask-6" maskContentUnits="userSpaceOnUse" maskUnits="objectBoundingBox" x="0" y="0" width="141.869995" height="106.983552" fill="white">
            <use xlink:href="#path-5"></use>
        </mask>
    </defs>
    <g id="squids" stroke="none" stroke-width="1" fill="none" fill-rule="evenodd">
        <g id="cb">
            <path d="M251.174258,184.10154 C292.811979,198.145032 339.869995,190.507344 339.869995,162.913114 C339.869995,135.318885 296.261258,89 296.261258,89 C296.261258,89 210.768422,94.4202951 200.666963,124.724672 C190.565504,155.029049 209.536537,170.058049 251.174258,184.10154 Z" id="clam" fill="#EA3030"></path>
            <path d="M109.815103,255.670708 C150.388548,269.355243 196.243743,261.912777 196.243743,235.023867 C196.243743,208.134956 153.749662,163 153.749662,163 C153.749662,163 70.4420562,168.28175 60.5987945,197.811536 C50.7555327,227.341321 69.2416585,241.986174 109.815103,255.670708 Z" id="clam" fill="#EA3030"></path>
            <path d="M273.174258,315.10154 C314.811979,329.145032 361.869995,321.507344 361.869995,293.913114 C361.869995,266.318885 318.261258,220 318.261258,220 C318.261258,220 232.768422,225.420295 222.666963,255.724672 C212.565504,286.029049 231.536537,301.058049 273.174258,315.10154 Z" id="clam" fill="#EA3030"></path>
            <use id="clam" stroke="#000000" mask="url(#mask-2)" stroke-width="14" xlink:href="#path-1"></use>
            <use id="clam" stroke="#000000" mask="url(#mask-4)" stroke-width="14" xlink:href="#path-3"></use>
            <use id="clam" stroke="#000000" mask="url(#mask-6)" stroke-width="14" xlink:href="#path-5"></use>
        </g>
    </g>
</svg>