<?xml version="1.0" encoding="UTF-8" standalone="no"?>
<svg width="400px" height="400px" viewBox="0 0 400 400" version="1.1" xmlns="http://www.w3.org/2000/svg" xmlns:xlink="http://www.w3.org/1999/xlink">
    <!-- Generator: Sketch 41.2 (35397) - http://www.bohemiancoding.com/sketch -->
    <title>rm</title>
    <desc>Created with Sketch.</desc>
    <defs>
        <linearGradient x1="50%" y1="0%" x2="50%" y2="100%" id="linearGradient-1">
            <stop stop-color="#FBDA61" offset="0%"></stop>
            <stop stop-color="#F76B1C" offset="100%"></stop>
        </linearGradient>
        <path d="M243,167.339349 L243,169 C243,169 237.359792,185.99332 229.5,189 C224.47706,190.921472 219.284371,187.028758 215.442594,184.809602 C196.353919,166.21789 171.538514,154 146,154 C91.8760945,154 48,197.876095 48,252 C48,262.002205 49.4984465,271.551974 52.2831007,280.474936 L123.154628,268.831887 L79.3776769,322.260841 C96.8620991,337.764573 120.273369,347 146,347 C163.234311,347 180.139315,343.970762 195.177286,338.094 C201.746684,335.980587 208.391001,333.448236 215.032342,330.49132 C262.743824,309.2488 294.274431,273.230333 291.849388,245.29398 L382,251.5 C382,251.5 389.5,232.5 361,198 C332.5,163.5 307.5,161 307.5,161 L294.978209,176.972678 C294.570587,176.998112 294.083384,177.011395 293.5,177 C290.322565,176.937935 288.869312,173.763145 288.062034,170.543048 C287.172825,167.890646 286.460764,164.134225 286,159 C282.5,120 310.072054,103 341,103 C348.2004,103 354.812394,103.383316 360.719687,104.361738 C357.892317,76.0814737 334.024861,54 305,54 C286.561294,54 270.203971,62.911455 260,76.6623937 C249.796029,62.911455 233.438706,54 215,54 C184.408922,54 159.546866,78.5288573 159.008899,108.991505 C167.368651,106.323545 177.271867,105 188,105 C218.927946,105 244,130.072054 244,161 C244,163.525615 243.653235,165.622069 243.000002,167.339343 Z" id="path-2"></path>
        <mask id="mask-3" maskContentUnits="userSpaceOnUse" maskUnits="objectBoundingBox" x="0" y="0" width="334.891795" height="293" fill="white">
            <use xlink:href="#path-2"></use>
        </mask>
        <linearGradient x1="56.7226052%" y1="92.7166882%" x2="56.7226077%" y2="-5.44911253%" id="linearGradient-4">
            <stop stop-color="#FFD640" offset="0%"></stop>
            <stop stop-color="#FFD6BF" offset="100%"></stop>
        </linearGradient>
        <circle id="path-5" cx="125" cy="209" r="30"></circle>
        <mask id="mask-6" maskContentUnits="userSpaceOnUse" maskUnits="objectBoundingBox" x="0" y="0" width="60" height="60" fill="white">
            <use xlink:href="#path-5"></use>
        </mask>
        <circle id="path-7" cx="56" cy="209" r="30"></circle>
        <mask id="mask-8" maskContentUnits="userSpaceOnUse" maskUnits="objectBoundingBox" x="0" y="0" width="60" height="60" fill="white">
            <use xlink:href="#path-7"></use>
        </mask>
    </defs>
    <g id="squids" stroke="none" stroke-width="1" fill="none" fill-rule="evenodd">
        <g id="rm">
            <path d="M245.217831,166.447788 L245.217831,168.118783 C245.217831,168.118783 239.54249,185.217955 231.63374,188.243363 C226.579512,190.176804 221.354478,186.259842 217.488771,184.026863 C198.281193,165.319343 173.311213,153.025349 147.613619,153.025349 C93.152577,153.025349 49.003179,197.174747 49.003179,251.635789 C49.003179,263.814613 51.2109986,275.326815 55.2482304,285.861503 L145.101798,271.100011 L94.6393912,332.688439 C109.940793,341.955979 128.116404,347.227543 147.613619,347.227543 C164.955283,347.227543 181.965588,344.179435 197.09723,338.266068 C203.707549,336.13949 210.393253,333.591365 217.075963,330.61603 C265.084639,309.241191 296.81165,272.998365 294.371501,244.887997 L385.08366,251.132675 C385.08366,251.132675 392.630377,232.014324 363.952851,197.299424 C335.275325,162.584524 310.119601,160.068951 310.119601,160.068951 L297.519812,176.141123 C297.10965,176.166715 296.619412,176.180081 296.032395,176.168615 C292.835167,176.106163 291.372862,172.911598 290.560556,169.671443 C289.665808,167.002519 288.949311,163.2227 288.485677,158.056493 C284.963876,118.813563 312.707676,101.70767 343.828271,101.70767 C351.073522,101.70767 357.726703,102.093374 363.670792,103.077891 C360.825811,74.6214689 336.809684,52.4024501 307.604028,52.4024501 C289.050468,52.4024501 272.591255,61.3694144 262.323724,75.2060075 C252.056193,61.3694144 235.596979,52.4024501 217.043419,52.4024501 C186.26179,52.4024501 161.244869,77.0840972 160.70355,107.736496 C169.115375,105.051918 179.080278,103.720128 189.875237,103.720128 C220.995833,103.720128 246.22406,128.948356 246.22406,160.068951 C246.22406,162.610298 245.875135,164.719811 245.217833,166.447783 Z" id="Combined-Shape" fill="url(#linearGradient-1)" transform="translate(217.492095, 199.814996) rotate(8.000000) translate(-217.492095, -199.814996) "></path>
            <use id="Combined-Shape" stroke="#000000" mask="url(#mask-3)" stroke-width="16" xlink:href="#path-2"></use>
            <path d="M225.022679,337.163145 C217.256204,335.300633 214.429495,328.773695 214.979316,321.891362 C215.616378,313.779405 222.943098,309.278928 230.691314,311.133294 C238.473006,313.000897 246.049276,322.071096 242.59007,330.131118 C239.871398,336.486978 232.774446,339.022092 225.022679,337.163145 Z M192.383396,323.281881 C192.387454,330.841908 188.637614,333.021627 184.010291,333.021627 C177.644236,333.0257 174.493924,328.548645 174.493924,323.170375 C174.493924,317.793123 178.842785,312.103246 184.006234,313.55792 C188.46161,314.822676 192.387454,317.909721 192.383396,323.281881 Z M217.514376,287.207806 C208.408346,292.092699 203.375759,288.951174 200.3979,283.328507 C196.288444,275.597402 199.630991,268.886147 206.100011,265.423342 C212.582725,261.947807 222.265459,263.573559 223.843405,270.758843 C225.196654,276.992504 224.005206,283.732271 217.514376,287.207806 Z M277.982009,295.977091 C277.982009,307.508575 269.796066,313.668408 260.016455,315.20862 C248.4763,317.021744 239.745608,308.20969 239.751695,296.682788 C239.750681,285.141121 249.8823,271.44061 262.291821,273.609636 C272.057738,275.329074 277.982009,284.445097 277.982009,295.977091 Z M262.375004,246.633764 C265.760157,252.199915 264.41553,258.749256 259.840958,261.980393 C255.14922,265.288923 246.707641,263.834249 243.328575,258.272172 C239.957624,252.718241 242.298421,244.678075 247.627222,241.841029 C253.616923,238.66539 259.01014,241.07576 262.375004,246.633764 Z M163.796761,292.927724 C163.80234,300.932248 158.122039,305.214294 151.330431,306.275386 C143.329115,307.532505 137.256737,301.418497 137.262317,293.413973 C137.261809,285.395701 144.292316,275.897807 152.911927,277.399324 C159.702014,278.581596 163.797268,284.918617 163.796761,292.927724 Z M182.561178,255.87555 C185.797717,261.211051 184.519535,267.490536 180.122996,270.588274 C175.625521,273.757802 167.536964,272.367283 164.294846,267.047057 C161.077074,261.711047 163.311356,254.008965 168.418503,251.29208 C174.167278,248.245768 179.328697,250.554306 182.561178,255.87555 Z M127.510094,306.243818 C116.895099,303.708704 106.88369,309.855808 106.002151,320.945849 C105.268718,330.359223 109.128624,339.286347 119.734489,341.822479 C130.344412,344.372359 140.032725,340.904462 143.761769,332.227845 C148.48039,321.186174 138.120017,308.79217 127.510094,306.243818 Z M94.8018298,317.756463 C94.8008154,325.7839 90.8257717,328.097019 85.9128875,328.107712 C79.1395388,328.101602 75.7924272,323.351127 75.7827901,317.640884 C75.7914128,311.929622 80.4278648,305.877222 85.9174524,307.420999 C90.6315084,308.751437 94.8008154,312.047238 94.8018298,317.756463 Z" id="blots" fill="url(#linearGradient-4)" transform="translate(176.882400, 291.532862) rotate(-15.000000) translate(-176.882400, -291.532862) "></path>
            <use id="Oval-3" stroke="#000000" mask="url(#mask-6)" stroke-width="12" fill="#FFFFFF" xlink:href="#path-5"></use>
            <use id="Oval-3" stroke="#000000" mask="url(#mask-8)" stroke-width="12" fill="#FFFFFF" xlink:href="#path-7"></use>
            <circle id="Oval-5" fill="#000000" cx="52.5" cy="200.5" r="4.5"></circle>
            <circle id="Oval-5" fill="#000000" cx="124.5" cy="220.5" r="4.5"></circle>
        </g>
    </g>
</svg>