<?xml version="1.0" encoding="UTF-8" standalone="no"?>
<svg width="400px" height="400px" viewBox="0 0 400 400" version="1.1" xmlns="http://www.w3.org/2000/svg" xmlns:xlink="http://www.w3.org/1999/xlink">
    <!-- Generator: Sketch 41.2 (35397) - http://www.bohemiancoding.com/sketch -->
    <title>sz</title>
    <desc>Created with Sketch.</desc>
    <defs>
        <path d="M144.511735,169.945571 C147.751003,166.938657 153.882537,165.282348 158.180969,166.240322 L356.07293,210.343726 C360.382971,211.304288 361.188079,214.43688 357.864499,217.346424 L249.889399,311.870491 C246.568815,314.777412 240.375655,316.353789 236.0714,315.394726 L43.6824983,272.527138 C39.3716126,271.566597 38.4973056,268.355529 41.7421637,265.343426 L144.511735,169.945571 Z" id="path-1"></path>
        <mask id="mask-2" maskContentUnits="userSpaceOnUse" maskUnits="objectBoundingBox" x="0" y="0" width="320.132577" height="149.706862" fill="white">
            <use xlink:href="#path-1"></use>
        </mask>
        <path d="M59.6778084,193.34781 C59.9329842,194.419867 60.592043,194.516481 61.1440318,193.567419 C61.1440318,193.567419 84.9715371,153.142892 84.9715371,143.485769 C84.9715371,133.828645 77.1428918,126 67.4857685,126 C57.8286452,126 50,133.828645 50,143.485769 C50,153.142892 59.6778084,193.34781 59.6778084,193.34781 Z" id="path-3"></path>
        <mask id="mask-4" maskContentUnits="userSpaceOnUse" maskUnits="objectBoundingBox" x="-6" y="-6" width="46.9715371" height="80.2201683">
            <rect x="44" y="120" width="46.9715371" height="80.2201683" fill="white"></rect>
            <use xlink:href="#path-3" fill="black"></use>
        </mask>
        <path d="M146.677808,119.34781 C146.932984,120.419867 147.592043,120.516481 148.144032,119.567419 C148.144032,119.567419 171.971537,79.1428918 171.971537,69.4857685 C171.971537,59.8286452 164.142892,52 154.485769,52 C144.828645,52 137,59.8286452 137,69.4857685 C137,79.1428918 146.677808,119.34781 146.677808,119.34781 Z" id="path-5"></path>
        <mask id="mask-6" maskContentUnits="userSpaceOnUse" maskUnits="objectBoundingBox" x="-6" y="-6" width="46.9715371" height="80.2201683">
            <rect x="131" y="46" width="46.9715371" height="80.2201683" fill="white"></rect>
            <use xlink:href="#path-5" fill="black"></use>
        </mask>
        <path d="M256.677808,153.34781 C256.932984,154.419867 257.592043,154.516481 258.144032,153.567419 C258.144032,153.567419 281.971537,113.142892 281.971537,103.485769 C281.971537,93.8286452 274.142892,86 264.485769,86 C254.828645,86 247,93.8286452 247,103.485769 C247,113.142892 256.677808,153.34781 256.677808,153.34781 Z" id="path-7"></path>
        <mask id="mask-8" maskContentUnits="userSpaceOnUse" maskUnits="objectBoundingBox" x="-6" y="-6" width="46.9715371" height="80.2201683">
            <rect x="241" y="80" width="46.9715371" height="80.2201683" fill="white"></rect>
            <use xlink:href="#path-7" fill="black"></use>
        </mask>
    </defs>
    <g id="squids" stroke="none" stroke-width="1" fill="none" fill-rule="evenodd">
        <g id="sz">
            <path d="M150.511735,193.945571 C153.751003,190.938657 159.882537,189.282348 164.180969,190.240322 L362.07293,234.343726 C366.382971,235.304288 367.188079,238.43688 363.864499,241.346424 L255.889399,335.870491 C252.568815,338.777412 246.375655,340.353789 242.0714,339.394726 L49.6824983,296.527138 C45.3716126,295.566597 44.4973056,292.355529 47.7421637,289.343426 L150.511735,193.945571 Z" id="zone" fill="#5CEB7D"></path>
            <use id="zone" stroke="#000000" mask="url(#mask-2)" stroke-width="16" xlink:href="#path-1"></use>
            <path d="M55.6778084,199.34781 C55.9329842,200.419867 56.592043,200.516481 57.1440318,199.567419 C57.1440318,199.567419 80.9715371,159.142892 80.9715371,149.485769 C80.9715371,139.828645 73.1428918,132 63.4857685,132 C53.8286452,132 46,139.828645 46,149.485769 C46,159.142892 55.6778084,199.34781 55.6778084,199.34781 Z" id="drop" fill="#5CEB7D" transform="translate(63.485769, 166.110084) scale(1, -1) translate(-63.485769, -166.110084) "></path>
            <path d="M142.677808,125.34781 C142.932984,126.419867 143.592043,126.516481 144.144032,125.567419 C144.144032,125.567419 167.971537,85.1428918 167.971537,75.4857685 C167.971537,65.8286452 160.142892,58 150.485769,58 C140.828645,58 133,65.8286452 133,75.4857685 C133,85.1428918 142.677808,125.34781 142.677808,125.34781 Z" id="drop" fill="#5CEB7D" transform="translate(150.485769, 92.110084) scale(1, -1) translate(-150.485769, -92.110084) "></path>
            <path d="M252.677808,159.34781 C252.932984,160.419867 253.592043,160.516481 254.144032,159.567419 C254.144032,159.567419 277.971537,119.142892 277.971537,109.485769 C277.971537,99.8286452 270.142892,92 260.485769,92 C250.828645,92 243,99.8286452 243,109.485769 C243,119.142892 252.677808,159.34781 252.677808,159.34781 Z" id="drop" fill="#5CEB7D" transform="translate(260.485769, 126.110084) scale(1, -1) translate(-260.485769, -126.110084) "></path>
            <use id="drop" stroke="#000000" mask="url(#mask-4)" stroke-width="12" transform="translate(67.485769, 160.110084) scale(1, -1) translate(-67.485769, -160.110084) " xlink:href="#path-3"></use>
            <use id="drop" stroke="#000000" mask="url(#mask-6)" stroke-width="12" transform="translate(154.485769, 86.110084) scale(1, -1) translate(-154.485769, -86.110084) " xlink:href="#path-5"></use>
            <use id="drop" stroke="#000000" mask="url(#mask-8)" stroke-width="12" transform="translate(264.485769, 120.110084) scale(1, -1) translate(-264.485769, -120.110084) " xlink:href="#path-7"></use>
        </g>
    </g>
</svg>