<?xml version="1.0" encoding="UTF-8" standalone="no"?>
<svg width="400px" height="400px" viewBox="0 0 400 400" version="1.1" xmlns="http://www.w3.org/2000/svg" xmlns:xlink="http://www.w3.org/1999/xlink">
    <!-- Generator: Sketch 41.2 (35397) - http://www.bohemiancoding.com/sketch -->
    <title>tc</title>
    <desc>Created with Sketch.</desc>
    <defs>
        <path d="M165.218788,138.374155 C188.434545,128.05256 226.450188,127.147369 250.134225,136.354346 L347.615318,174.249327 C373.355862,184.255754 374.224746,202.428783 349.559953,214.837947 L234.444166,272.754133 C222.607784,278.709164 202.883175,279.943422 190.386103,275.510246 L51.9516638,226.402402 C25.9239853,217.169416 25.2780978,200.590996 50.5060886,189.374774 L165.218788,138.374155 Z" id="path-1"></path>
        <filter x="-50%" y="-50%" width="200%" height="200%" filterUnits="objectBoundingBox" id="filter-2">
            <feOffset dx="0" dy="8" in="SourceAlpha" result="shadowOffsetOuter1"></feOffset>
            <feGaussianBlur stdDeviation="6" in="shadowOffsetOuter1" result="shadowBlurOuter1"></feGaussianBlur>
            <feColorMatrix values="0 0 0 0 0.0614105017   0 0 0 0 0.0614105017   0 0 0 0 0.0614105017  0 0 0 0.579398777 0" type="matrix" in="shadowBlurOuter1"></feColorMatrix>
        </filter>
        <path d="M163.465179,118.688444 C186.68037,108.367102 224.688491,107.45937 248.374312,116.667039 L359.262325,159.773852 C384.996579,169.777833 385.853539,187.952314 361.185784,200.362968 L233.112047,264.79846 C221.270059,270.756311 201.541113,271.992929 189.05065,267.562097 L35.6980228,213.162216 C9.67110943,203.929502 9.02899531,187.3499 34.2622364,176.131344 L163.465179,118.688444 Z" id="path-3"></path>
        <mask id="mask-4" maskContentUnits="userSpaceOnUse" maskUnits="objectBoundingBox" x="0" y="0" width="363.38951" height="159.906397" fill="white">
            <use xlink:href="#path-3"></use>
        </mask>
        <path d="M0,51.0089486 C0,49.8994369 0.67556045,48.3981371 1.49964155,47.6639557 L53.5003585,1.33604429 C54.3285876,0.598167402 55,0.89469723 55,1.99915006 L55,172.00085 C55,173.10495 54.1580902,173.716812 53.1067755,173.363188 L1.89322449,156.136812 C0.847625477,155.78511 0,154.61129 0,153.491051 L0,51.0089486 Z" id="path-5"></path>
        <path d="M0.994211853,1.4911224 C0.997408559,0.391455865 1.64224601,0.135555945 2.42352187,0.90869352 L47.5764781,45.5913065 C48.3626675,46.3693064 49,47.9034085 49,48.9942133 L49,149.505787 C49,150.60716 48.1785416,151.838746 47.1579661,152.259602 L2.34203386,170.740398 C1.32470665,171.159915 0.502630225,170.595202 0.505788147,169.508878 L0.994211853,1.4911224 Z" id="path-7"></path>
    </defs>
    <g id="squids" stroke="none" stroke-width="1" fill="none" fill-rule="evenodd">
        <g id="tc">
            <path d="M59.5,211 L211,231.48503 L211.493633,386.731471 C211.497149,387.837428 210.645177,388.44304 209.605672,388.08924 L61.3943281,337.644744 C60.3481196,337.288662 59.5,336.110889 59.5,334.9954 L59.5,211 Z" id="low-left" fill="#45A4E2"></path>
            <path d="M59.5,211 L211,231.48503 L211.493633,386.731471 C211.497149,387.837428 210.645177,388.44304 209.605672,388.08924 L61.3943281,337.644744 C60.3481196,337.288662 59.5,336.110889 59.5,334.9954 L59.5,211 Z" id="low-left" stroke="#000000" stroke-width="8"></path>
            <path d="M212.491912,200 L346.491912,265.5 L346.491912,386.997489 C346.491912,388.103445 345.68505,388.607068 344.692285,388.123602 L213.791538,324.376398 C212.797632,323.892377 211.995509,322.611487 212.000019,321.497489 L212.491912,200 Z" id="low-right" fill="#0E5888" transform="translate(279.245956, 294.153649) scale(-1, 1) translate(-279.245956, -294.153649) "></path>
            <path d="M212.491912,199 L346.491912,264.5 L346.491912,385.997489 C346.491912,387.103445 345.68505,387.607068 344.692285,387.123602 L213.791538,323.376398 C212.797632,322.892377 211.995509,321.611487 212.000019,320.497489 L212.491912,199 Z" id="low-right" stroke="#000000" stroke-width="8" transform="translate(279.245956, 293.153649) scale(-1, 1) translate(-279.245956, -293.153649) "></path>
            <g id="plat">
                <use fill="black" fill-opacity="1" filter="url(#filter-2)" xlink:href="#path-1"></use>
                <use fill="#A0A09F" fill-rule="evenodd" xlink:href="#path-1"></use>
            </g>
            <use id="plat" stroke="#000000" mask="url(#mask-4)" stroke-width="16" xlink:href="#path-3"></use>
            <g id="top-left" transform="translate(156.000000, 21.000000)">
                <mask id="mask-6" fill="white">
                    <use xlink:href="#path-5"></use>
                </mask>
                <use id="Mask" fill="#45A4E2" xlink:href="#path-5"></use>
                <path d="M-8,142.997472 C-8,138.58059 -4.56561206,135.981254 -0.312841654,137.196331 L51.5,152 L57.4505443,182.149424 C58.3062851,186.485178 55.421476,190 51.0013874,190 L-0.00138739127,190 C-4.41889915,190 -8,186.412512 -8,182.002528 L-8,142.997472 Z" id="Rectangle-2" fill="#FFE400" mask="url(#mask-6)"></path>
                <path d="M-7.89369285,-18.7596108 C-7.95240467,-23.1782811 -4.77992493,-25.1992613 -0.793287462,-23.2665798 L51.5,2.08467668 L58.1027743,60.6090747 C58.5982984,65.0012053 55.5675402,67.5183808 51.3483322,66.2358867 L-7,48.5 L-7.89369285,-18.7596108 Z" id="Rectangle-2" fill="#FFE400" mask="url(#mask-6)"></path>
            </g>
            <path d="M156,72.0089486 C156,70.8994369 156.67556,69.3981371 157.499642,68.6639557 L209.500358,22.3360443 C210.328588,21.5981674 211,21.8946972 211,22.9991501 L211,193.00085 C211,194.10495 210.15809,194.716812 209.106776,194.363188 L157.893224,177.136812 C156.847625,176.78511 156,175.61129 156,174.491051 L156,72.0089486 Z" id="top-left" stroke="#000000" stroke-width="8"></path>
            <g id="top-right" transform="translate(211.000000, 23.000000)">
                <mask id="mask-8" fill="white">
                    <use xlink:href="#path-7"></use>
                </mask>
                <use id="Mask" fill="#0E5888" xlink:href="#path-7"></use>
                <path d="M-6,160.991652 C-6,156.577985 -2.68019892,151.677706 1.42756765,150.041562 L53,129.5 L59.6699823,169.10302 C60.4045308,173.464402 57.421476,177 53.0013874,177 L1.99861261,177 C-2.41889915,177 -6,173.419924 -6,169.008348 L-6,160.991652 Z" id="Rectangle-3" fill="#D3BD00" mask="url(#mask-8)"></path>
                <path d="M-7.66764731,10.4460944 C-7.49993967,6.03383346 -4.41798062,0.436879105 -0.767673778,-2.06617894 L51.6360142,-38 L59.3401751,39.0416088 C59.7797049,43.4369069 59.8254817,50.5766006 59.4437204,54.9735893 L58.4429586,66.5 L-1.37965077,49.2179128 C-5.61975651,47.9929934 -8.92135346,43.4301541 -8.75337982,39.0108948 L-7.66764731,10.4460944 Z" id="Rectangle-3" fill="#D3BD00" mask="url(#mask-8)" transform="translate(25.471479, 14.250000) scale(-1, 1) translate(-25.471479, -14.250000) "></path>
            </g>
            <path d="M211,74.7546831 C211,73.6498884 211.610672,72.0957518 212.361682,71.2858924 L258.638318,21.3830345 C259.390354,20.572069 260,20.8124492 260,21.9056065 L260,192.526665 C260,193.62624 259.180264,194.155938 258.168571,193.709561 L212.831429,173.706003 C211.819958,173.259724 211,172.001606 211,170.897536 L211,74.7546831 Z" id="top-right" stroke="#000000" stroke-width="8" transform="translate(235.500000, 107.384857) scale(-1, 1) translate(-235.500000, -107.384857) "></path>
        </g>
    </g>
</svg>